<?xml version="1.0" encoding="utf-8"?>
<!-- Generator: Adobe Illustrator 19.1.0, SVG Export Plug-In . SVG Version: 6.00 Build 0)  -->
<svg version="1.1" id="Layer_1" xmlns="http://www.w3.org/2000/svg" xmlns:xlink="http://www.w3.org/1999/xlink" x="0px" y="0px"
	 viewBox="0 0 720 480" style="enable-background:new 0 0 720 480;" xml:space="preserve">
<style type="text/css">
	.st0{fill:url(#SVGID_1_);stroke:#000000;stroke-width:3;stroke-miterlimit:10;}
	.st1{fill:none;stroke:#000000;stroke-width:3;stroke-miterlimit:10;}
	.st2{fill:#BABEC2;stroke:#000000;stroke-width:3;stroke-miterlimit:10;}
	.st3{fill:none;stroke:#0D923F;stroke-width:3;stroke-miterlimit:10;}
	.st4{fill:#0D923F;}
</style>
<linearGradient id="SVGID_1_" gradientUnits="userSpaceOnUse" x1="404.8848" y1="223.634" x2="698.299" y2="223.634">
	<stop  offset="0" style="stop-color:#FFFFFF"/>
	<stop  offset="1" style="stop-color:#4D4D4D"/>
</linearGradient>
<path class="st0" d="M404.9,251.6c27.6-24.7,55.1-32.6,80.5-21.4c30.6,13.5,53.6,31.3,65.6,86.6c5.9-34.7,18-64,49.9-85.6
	c31-21,68.7-16.9,97.4,7.9c-26.8-72.3-101.5-118.7-171.4-106.7C468.7,142.3,419.8,190.8,404.9,251.6z"/>
<line class="st1" x1="356.5" y1="0" x2="356.5" y2="474"/>
<rect x="60.3" y="117.3" class="st2" width="224.7" height="269.7"/>
<path class="st3" d="M171.3,253.1c7.9-75.9,95.2-120.3,132.2-134.8c38.6-15.2,158.6-29.1,227.4,30.4"/>
<polygon class="st4" points="544.1,163.2 511.7,152.8 536.9,129.9 "/>
<path d="M570.6,190.4c0-0.6-0.4-0.6-0.6-0.6c-0.2,0-0.3,0.1-1.1,1l-3,3.7c-2-4-6.1-4.7-8.7-4.7c-7.9,0-15,7.2-15,14.2
	c0,4.6,2.8,7.4,5.8,8.4c0.7,0.2,4.3,1.2,6.2,1.7c3.2,0.9,4,1.1,5.3,2.5c0.2,0.3,1.5,1.7,1.5,4.6c0,5.8-5.3,11.7-11.5,11.7
	c-5.1,0-10.7-2.2-10.7-9.1c0-1.2,0.2-2.7,0.4-3.3l0.1-0.6c0-0.2-0.1-0.6-0.6-0.6c-0.6,0-0.6,0.1-0.9,1.2l-3.2,12.7l-0.2,0.9
	c0,0.6,0.5,0.6,0.6,0.6c0.2,0,0.3-0.1,1.1-1l2.9-3.7c1.5,2.2,4.7,4.7,10.5,4.7c8,0,15.3-7.7,15.3-15.5c0-2.6-0.6-4.9-3-7.2
	c-1.3-1.3-2.4-1.6-8.1-3.1c-4.2-1.1-4.7-1.3-5.8-2.3c-1.1-1.1-1.9-2.5-1.9-4.6c0-5.2,5.3-10.5,11.2-10.5c6.1,0,8.9,3.7,8.9,9.6
	c0,1.6-0.3,3.3-0.3,3.5c0,0.6,0.5,0.6,0.7,0.6c0.6,0,0.6-0.2,0.9-1.2L570.6,190.4z M172.4,285.7c0.4-1.5,0.5-2,1.4-2.3
	c0.5-0.1,2.5-0.1,3.8-0.1c6.2,0,9.1,0.2,9.1,5.1c0,0.9-0.2,3.3-0.6,5.6l-0.1,0.7l0.6,0.6c0.6,0,0.6-0.3,0.8-1.3l1.8-11
	c0.1-0.6,0.1-0.7,0.1-0.9c0-0.7-0.4-0.7-1.6-0.7h-33.9c-1.4,0-1.5,0.1-1.9,1.2l-3.8,11.2l-0.2,0.9l0.6,0.6c0.5,0,0.6-0.2,0.9-1.1
	c2.6-7.5,3.9-11,12.1-11h4.2c1.5,0,2.1,0,2.1,0.7c0,0.2,0,0.3-0.3,1.4l-8.3,33.3c-0.6,2.4-0.7,3-7.3,3c-1.5,0-2,0-2,1.2
	c0,0.6,0.7,0.6,1,0.6c1.5,0,3.2-0.1,4.7-0.1h9.7c1.5,0,3.2,0.1,4.8,0.1c0.7,0,1.3,0,1.3-1.2c0-0.6-0.4-0.6-2-0.6
	c-5.6,0-5.6-0.6-5.6-1.5c0-0.1,0-0.5,0.2-1.5L172.4,285.7z"/>
<path class="st4" d="M405.6,55.6c-0.7,0.7-3,2.9-3,3.7c0,0.6,0.6,1.2,1.2,1.2c0.6,0,0.8-0.4,1.2-1c1.5-1.9,3.2-3,4.6-3.8
	c0.6-0.4,1.1-0.6,1.1-1.2c0-0.6-0.5-0.9-0.9-1.2c-1.7-1.2-2.2-2.9-2.4-3.6c-0.2-0.5-0.4-1.2-1.2-1.2c-0.4,0-1.1,0.2-1.1,1.2
	c0,0.6,0.4,2,1.5,3.7h-20.8c-1.1,0-2.1,0-2.1,1.2c0,1.1,1.1,1.1,2.1,1.1H405.6z"/>
<path class="st4" d="M404.6,70.1c0.4-0.9,0.7-1.4,4.6-1.4V66c-2.2,0.1-2.4,0.1-4.9,0.1c-1.7,0-1.8,0-5.3-0.1v2.7c1.7,0,3,0.3,3,0.7
	c0,0.1,0,0.1-0.3,0.7L394.5,86l-8-17.4h3.4V66c-1.4,0.1-5.8,0.1-7.4,0.1c-1.8,0-5.4,0-7-0.1v2.7h3.9l10.9,23.7
	c0.6,1.2,0.7,1.5,2.1,1.5c1,0,1.5-0.1,2-1.4L404.6,70.1z"/>
</svg>
